<?xml version="1.0" standalone="no"?>
<!DOCTYPE svg PUBLIC "-//W3C//DTD SVG 20010904//EN"
 "http://www.w3.org/TR/2001/REC-SVG-20010904/DTD/svg10.dtd">
<svg version="1.0" xmlns="http://www.w3.org/2000/svg"
 width="100.000000pt" height="108.000000pt" viewBox="0 0 100.000000 108.000000"
 preserveAspectRatio="xMidYMid meet">

<g transform="translate(0.000000,108.000000) scale(0.100000,-0.100000)"
fill="#000000" stroke="none">
<path d="M0 948 c0 -114 2 -129 13 -108 9 18 19 24 38 22 14 -2 31 4 39 12 7
9 18 16 24 16 28 0 35 23 15 48 -25 32 -13 46 51 63 45 12 101 7 130 -11 28
-17 3 -20 -36 -4 -36 15 -43 15 -91 0 -29 -10 -53 -18 -53 -20 0 -2 9 -13 20
-26 19 -22 19 -24 4 -42 -10 -10 -22 -18 -29 -18 -7 0 -19 -8 -29 -19 -10 -11
-25 -16 -41 -13 -20 3 -25 -1 -31 -24 -5 -18 -3 -29 4 -32 17 -5 76 -97 101
-154 11 -27 25 -48 30 -48 21 0 61 -74 61 -114 0 -33 6 -45 41 -76 22 -21 50
-56 62 -78 12 -22 33 -57 46 -77 l25 -38 9 26 c8 24 11 25 70 22 34 -1 78 -6
97 -9 31 -6 37 -4 52 23 18 32 37 40 168 65 41 8 95 23 120 34 40 17 46 24 58
67 16 61 7 72 -69 81 -57 6 -62 9 -90 50 -16 24 -34 44 -39 44 -13 0 -40 54
-40 79 0 12 -14 33 -31 48 -17 16 -35 38 -40 51 -5 12 -16 22 -24 22 -9 0 -23
7 -31 15 -10 10 -35 15 -69 15 -43 0 -59 5 -85 26 -17 15 -28 29 -25 32 3 3
15 -4 28 -15 15 -14 43 -23 85 -28 34 -4 69 -13 77 -21 7 -8 21 -14 30 -14 8
0 19 -10 24 -22 5 -13 23 -34 40 -48 19 -15 31 -34 31 -48 0 -30 27 -82 43
-82 7 0 21 -16 32 -36 21 -39 48 -54 98 -54 18 0 43 -7 56 -16 19 -14 22 -23
18 -54 -9 -72 -26 -91 -100 -117 -37 -13 -99 -28 -138 -33 -83 -12 -100 -20
-118 -54 -18 -32 -32 -37 -73 -25 -18 5 -56 9 -84 9 -43 0 -53 -3 -57 -20 -12
-45 -51 -10 -111 101 -14 25 -36 53 -50 63 -31 20 -60 72 -52 93 9 22 -22 80
-55 104 -16 11 -29 26 -29 33 0 34 -72 148 -101 158 -19 7 -19 -2 -19 -382 l0
-390 500 0 500 0 0 540 0 540 -500 0 -500 0 0 -132z m389 -9 c-11 -6 -10 -9 4
-15 9 -3 17 -11 17 -16 0 -6 -7 -5 -16 3 -13 10 -17 10 -25 -2 -7 -11 -9 -10
-9 7 0 11 -5 25 -10 30 -7 7 -1 9 21 6 21 -3 27 -7 18 -13z m56 -191 c25 -11
34 -28 15 -28 -5 0 -10 4 -10 8 0 5 -10 14 -22 20 -31 14 -16 15 17 0z m110 1
c-11 -5 -28 -23 -37 -40 -10 -16 -13 -27 -8 -24 6 3 20 -1 32 -9 20 -14 18
-21 -4 -17 -14 2 -8 -17 7 -23 8 -3 15 -10 15 -16 0 -6 -7 -4 -16 4 -34 35
-44 20 -44 -64 0 -47 -4 -80 -10 -80 -6 0 -10 33 -10 80 0 63 -3 80 -14 80 -8
0 -22 -10 -30 -22 -13 -19 -16 -20 -16 -5 0 10 7 20 15 23 8 4 15 10 15 14 0
10 -62 6 -81 -5 -10 -5 -11 -5 -4 3 15 16 97 42 109 35 6 -4 5 1 -3 10 -7 9
-10 18 -5 18 5 1 15 2 22 3 7 0 16 6 20 12 9 13 44 34 57 33 6 0 1 -5 -10 -10z
m-55 -19 c0 -5 -4 -10 -10 -10 -5 0 -10 5 -10 10 0 6 5 10 10 10 6 0 10 -4 10
-10z m90 -14 c0 -2 -7 -6 -15 -10 -8 -3 -15 -1 -15 4 0 6 7 10 15 10 8 0 15
-2 15 -4z m-140 -16 c0 -5 -4 -10 -10 -10 -5 0 -10 5 -10 10 0 6 5 10 10 10 6
0 10 -4 10 -10z m100 0 c0 -5 -4 -10 -10 -10 -5 0 -10 5 -10 10 0 6 5 10 10
10 6 0 10 -4 10 -10z m-103 -223 c10 -11 -9 -28 -20 -19 -7 5 -25 14 -42 21
-29 11 -28 11 13 7 24 -2 46 -7 49 -9z m133 -6 c-35 -17 -50 -18 -50 -1 0 10
24 17 60 18 23 1 22 -1 -10 -17z m-96 -23 c5 -10 7 -10 12 0 7 14 34 16 34 2
0 -5 -7 -10 -15 -10 -8 0 -15 -4 -15 -10 0 -5 6 -10 13 -10 7 0 18 -9 25 -20
7 -12 8 -20 2 -20 -5 0 -10 5 -10 10 0 6 -6 10 -14 10 -8 0 -17 6 -20 13 -5
10 -7 10 -12 0 -3 -7 -12 -13 -20 -13 -8 0 -14 -4 -14 -10 0 -5 -5 -10 -10
-10 -6 0 -5 8 2 20 7 11 18 20 25 20 7 0 13 5 13 10 0 6 -7 10 -15 10 -8 0
-15 5 -15 10 0 14 27 12 34 -2z m-24 -104 c0 -3 -8 -1 -17 5 -12 6 -20 5 -28
-4 -14 -18 -55 -29 -55 -16 0 6 12 11 26 11 14 0 23 4 20 9 -9 14 16 20 37 9
9 -5 17 -11 17 -14z m113 3 c-5 -8 -8 -7 -11 1 -3 9 -9 9 -25 1 -21 -9 -21 -9
-4 5 21 16 51 11 40 -7z m47 -17 c0 -13 -11 -13 -30 0 -12 8 -11 10 8 10 12 0
22 -4 22 -10z m-453 -167 c3 -8 -15 -13 -58 -15 -39 -2 -64 -8 -67 -15 -2 -9
9 -13 37 -13 64 0 91 -15 91 -49 0 -17 -6 -31 -16 -35 -26 -10 -134 -7 -134 4
0 6 24 10 53 10 28 0 58 4 66 9 25 16 1 31 -49 31 -70 0 -99 33 -63 72 14 15
29 18 77 16 35 -2 61 -8 63 -15z m157 -58 c39 -64 43 -75 27 -75 -10 0 -21 7
-25 15 -3 10 -19 15 -42 15 -39 0 -44 23 -6 28 18 3 20 7 12 23 -16 29 -24 24
-54 -31 -15 -27 -34 -50 -42 -50 -8 0 -14 2 -14 5 0 14 87 145 96 145 1 0 23
-34 48 -75z m291 8 c50 -84 50 -83 31 -83 -9 0 -19 7 -22 15 -4 9 -19 15 -40
15 -24 0 -34 5 -34 15 0 9 9 15 21 15 15 0 19 4 15 16 -3 9 -6 18 -6 20 0 18
-23 -4 -49 -46 -17 -27 -38 -50 -46 -50 -10 0 -1 22 31 75 25 41 49 75 53 75
4 0 25 -30 46 -67z m193 50 c2 -9 -11 -13 -46 -13 -36 0 -54 -5 -66 -19 -36
-40 4 -81 80 -81 19 0 34 -4 34 -10 0 -5 -25 -10 -55 -10 -67 0 -95 22 -95 74
0 49 39 78 99 74 24 -2 46 -9 49 -15z m170 0 c2 -9 -11 -13 -46 -13 -54 0 -82
-17 -82 -50 0 -28 39 -50 87 -50 24 0 43 -4 43 -10 0 -6 -26 -10 -58 -10 -62
0 -83 12 -96 56 -9 28 10 69 38 83 28 14 108 9 114 -6z m-582 -68 c10 -19 21
-35 25 -35 3 0 14 16 25 35 17 31 34 46 34 28 0 -13 -51 -93 -59 -93 -9 0 -61
82 -61 94 0 17 19 2 36 -29z"/>
<path d="M470 662 c0 -4 9 -8 20 -8 11 0 20 4 20 8 0 4 -9 8 -20 8 -11 0 -20
-4 -20 -8z"/>
</g>
</svg>
